<svg xmlns="http://www.w3.org/2000/svg" viewBox="0 0 1510 350"><path fill="#1A1D1E" d="M135.4 346.3c-25.6 0-49.4-4.2-71.6-12.7C41.7 325.1 22 311.9 5 294.1l12.1-14.6c17.9 16.1 36.2 28.2 55 36.3 18.8 8.1 39.6 12.1 62.7 12.1 31.1 0 56.3-6.6 75.4-19.7 19.2-13.2 28.8-31.6 28.8-55.4 0-11-2.5-20.3-7.3-27.7-4.9-7.4-12-13.8-21.4-19.1-9.4-5.3-21-10-34.8-14-13.9-4-29.7-8.2-47.6-12.4-18.3-4.2-34.2-8.4-47.6-12.4-13.4-4-24.6-8.8-33.6-14.3s-15.6-12.5-19.8-21c-4.3-8.5-6.4-19.3-6.4-32.5 0-16.6 3.2-30.8 9.6-42.7 6.4-11.9 15-21.8 25.9-29.6 10.9-7.9 23.4-13.7 37.7-17.5 14.3-3.8 29.5-5.7 45.7-5.7 26.9 0 50 4.5 69.4 13.4 19.4 8.9 33.6 20.2 42.5 33.8l-14.7 10.8c-9.4-12.7-23.1-22.5-41.2-29.3-18.1-6.8-37.4-10.2-57.9-10.2-13.2 0-25.6 1.4-37.1 4.1-11.7 2.5-21.8 7-30.5 13.2-8.7 6.2-15.7 13.9-20.8 23.2-5.1 9.3-7.7 20.4-7.7 33.1 0 10.2 1.7 18.7 5.1 25.5 3.4 6.8 8.8 12.4 16.3 16.9 7.5 4.5 16.8 8.3 28.1 11.5 11.3 3.2 25 6.7 41.2 10.5 20.5 4.7 38.6 9.3 54.3 14 15.8 4.7 29.2 10.2 40.3 16.6 11.1 6.4 19.5 14.2 25.3 23.6 5.8 9.3 8.6 21.2 8.6 35.7 0 14.9-3 28.1-8.9 39.8-6 11.7-14.4 21.8-25.3 30.3s-24.1 15-39.6 19.4c-15.5 4.3-32.6 6.5-51.4 6.5zM384.4 3.7H512v19.8H406.8v322.9h-22.5V24.3l-105.2.1V3.7h105.3z"/><g fill="#34BAA1"><path d="M796.4 346.3h26.3l-82.8-172.8h-26.5l16.1 33.1L786 324.2h-.2M505.2 324.2l.7-1.5L603.4 123h-26.1L469.9 346.3h145.3l10.7-22.1M697 139.4h26.6L658.7 3.7h-24.1l-40.9 85.2h26.4l26.6-54.5"/></g><path fill="#1A1D1E" d="M822.7 173.1c0-23.8 4.1-46 12.3-66.6 8.2-20.6 19.7-38.5 34.4-53.8 14.7-15.3 32.1-27.3 52.2-36 20.2-8.7 42-13 65.3-13 29.4 0 55.6 6.7 78.5 20.1 22.9 13.4 40 31.7 51.3 55.1l-21.4 7.6c-10.8-19.5-26-34.8-45.4-45.9-19.5-11-41.1-16.6-64.9-16.6-19.5 0-37.8 3.8-54.8 11.5-17.1 7.6-32 18.2-44.8 31.5-12.8 13.4-22.7 29.2-29.9 47.4-7.1 18.3-10.7 37.8-10.7 58.6 0 20.8 3.8 40.4 11.4 58.9 7.6 18.5 17.7 34.7 30.5 48.7s27.7 25.1 44.8 33.1c17.1 8.1 35.1 12.1 54.2 12.1 12.5 0 25-1.8 37.3-5.4 12.3-3.6 23.7-8.4 34.1-14.3 10.4-5.9 19.4-12.8 26.9-20.7 7.6-7.9 12.7-16.2 15.2-25.2l22.1 6.4c-3.9 11.5-10.3 22.1-19.1 31.8-8.9 9.8-19.3 18.2-31.2 25.2-11.9 7-25 12.5-39.3 16.6-14.3 4-29 6.1-44.1 6.1-22.9 0-44.4-4.6-64.3-13.7s-37.3-21.5-52.2-37.3c-14.9-15.7-26.7-34.1-35.4-55.1-8.6-20.9-13-43.3-13-67.1zM1422.7 346.3l-140-186.9-86.3 78.5v108.4h-22.1V3.7h22.1V212l225-208.2h26.6l-149.8 141.3L1448 346.3h-25.3z"/><g fill="#231F20"><path d="M1482.7 5.2h-7.7v17.9h-1.6V5.2h-7.7V3.7h17v1.5zM1503.3 23.1V6.7l-8.2 12.7h-1L1486 6.7v16.4h-1.6V3.7h1.7l8.7 13.6 8.7-13.6h1.7v19.4h-1.9z"/></g></svg>